#!OML:ASF H:\Terrain\Patient Classification 1\Walking\liu\liu.ASF
:FULLY-SPECIFIED
:DEGREES
118
root -2.82355 16.4872 -36.1744 3.52136 0.527871 -2.55567
lowerback 7.37357 1.92925 -1.90762
upperback -3.82992 2.47838 1.25248
thorax -8.32671 1.35607 2.03477
lowerneck -2.63605 -3.89042 -6.52775
upperneck 5.99905 -5.27253 6.14489
head 2.79645 -2.60355 3.00528
rclavicle 2.03444e-016 -7.10655e-015
rhumerus -32.741 2.55593 -80.3543
rradius 30.7036
rwrist 2.65133
rhand -20.392 -26.9671
rfingers 7.12502
rthumb 5.96138 -56.8632
lclavicle 2.03444e-016 -7.10655e-015
lhumerus -26.7232 -4.04584 89.5223
lradius 25.1203
lwrist -30.279
lhand -28.4602 30.4261
lfingers 7.12502
lthumb -1.83034 60.398
rfemur -22.162 -6.08027 14.0397
rtibia 47.5302
rfoot -25.7926 1.45754
rtoes -7.28675
lfemur -21.9455 5.75151 -8.93068
ltibia 45.0978
lfoot -22.0397 0.108703
ltoes -8.44688
119
root -2.823 16.4855 -36.1748 3.55431 0.522894 -2.52695
lowerback 7.35567 1.93906 -1.94443
upperback -3.83923 2.4863 1.23216
thorax -8.32754 1.36145 2.03316
lowerneck -2.62593 -3.89764 -6.53125
upperneck 5.98512 -5.28256 6.15219
head 2.79101 -2.60857 3.00815
rclavicle -2.86902e-014 -9.83984e-015
rhumerus -32.7342 2.48779 -80.3615
rradius 30.66
rwrist 2.67537
rhand -20.4345 -26.9669
rfingers 7.12502
rthumb 5.92034 -56.8642
lclavicle -2.86902e-014 -9.83984e-015
lhumerus -26.7049 -4.02863 89.4728
lradius 25.121
lwrist -30.3242
lhand -28.3926 30.5583
lfingers 7.12502
lthumb -1.7651 60.5307
rfemur -22.2194 -6.10625 14.0065
rtibia 47.5637
rfoot -25.832 1.47953
rtoes -7.29464
lfemur -22.0106 5.76264 -8.96831
ltibia 45.1539
lfoot -22.0567 0.109783
ltoes -8.43971
120
root -2.82146 16.4828 -36.1753 3.55856 0.532006 -2.55732
lowerback 7.37503 1.93065 -1.92034
upperback -3.84107 2.47803 1.24084
thorax -8.33965 1.35645 2.02944
lowerneck -2.66528 -3.90428 -6.51058
upperneck 6.0194 -5.28805 6.09847
head 2.80731 -2.61167 2.98496
rclavicle -1.64059e-014 -4.67144e-015
rhumerus -32.7178 2.50323 -80.374
rradius 30.6185
rwrist 2.67855
rhand -20.4062 -26.8891
rfingers 7.12502
rthumb 5.94766 -56.7856
lclavicle -1.64059e-014 -4.67144e-015
lhumerus -26.6796 -3.92294 89.4094
lradius 25.083
lwrist -30.4307
lhand -28.4436 30.4317
lfingers 7.12502
lthumb -1.81435 60.4037
rfemur -22.2457 -6.15143 14.0312
rtibia 47.5901
rfoot -25.8347 1.51949
rtoes -7.27943
lfemur -22.0531 5.7502 -8.94234
ltibia 45.2161
lfoot -22.0797 0.160927
ltoes -8.54084
121
root -2.8205 16.4794 -36.1758 3.54307 0.50349 -2.63259
lowerback 7.38944 1.94099 -1.85396
upperback -3.82435 2.5003 1.25988
thorax -8.32892 1.36397 2.0088
lowerneck -2.66071 -3.90491 -6.53191
upperneck 5.98255 -5.28727 6.10769
head 2.79515 -2.61158 2.99217
rclavicle -5.63896e-015 -8.74653e-015
rhumerus -32.6714 2.47792 -80.3796
rradius 30.5729
rwrist 2.67349
rhand -20.3269 -26.9468
rfingers 7.12502
rthumb 6.02419 -56.8412
lclavicle -5.63896e-015 -8.74653e-015
lhumerus -26.6322 -3.82864 89.3579
lradius 25.0553
lwrist -30.4704
lhand -28.4287 30.4986
lfingers 7.12502
lthumb -1.79997 60.4707
rfemur -22.2544 -6.12921 14.1088
rtibia 47.6222
rfoot -25.8514 1.52999
rtoes -7.27402
lfemur -22.0534 5.7817 -8.85245
ltibia 45.2801
lfoot -22.117 0.134445
ltoes -8.44106
122
root -2.8198 16.4769 -36.1762 3.53099 0.479749 -2.67969
lowerback 7.39728 1.94971 -1.81067
upperback -3.81376 2.51702 1.26615
thorax -8.32114 1.36976 1.98854
lowerneck -2.64893 -3.9042 -6.55302
upperneck 5.96314 -5.28661 6.12942
head 2.78808 -2.61134 3.00382
rclavicle -2.73515e-014 -5.1684e-015
rhumerus -32.6496 2.4552 -80.3901
rradius 30.5386
rwrist 2.68067
rhand -20.3053 -26.9161
rfingers 7.12502
rthumb 6.04511 -56.8098
lclavicle -2.73515e-014 -5.1684e-015
lhumerus -26.5598 -3.65119 89.2817
lradius 24.9666
lwrist -30.5982
lhand -28.4534 30.4583
lfingers 7.12502
lthumb -1.8238 60.4302
rfemur -22.2678 -6.13901 14.1543
rtibia 47.6501
rfoot -25.8646 1.60186
rtoes -7.21379
lfemur -22.0757 5.79825 -8.80284
ltibia 45.3447
lfoot -22.1392 0.19977
ltoes -8.60195
123
root -2.81742 16.4738 -36.1773 3.53634 0.479164 -2.62266
lowerback 7.40547 1.94847 -1.85589
upperback -3.82186 2.50922 1.25138
thorax -8.33575 1.36815 1.99911
lowerneck -2.62825 -3.89216 -6.55569
upperneck 5.97233 -5.26943 6.09382
head 2.78468 -2.60415 2.99301
rclavicle -1.83938e-014 -6.36111e-015
rhumerus -32.6751 2.45027 -80.3865
rradius 30.5315
rwrist 2.69935
rhand -20.0315 -27.1595
rfingers 7.12502
rthumb 6.30936 -57.0455
lclavicle -1.83938e-014 -6.36111e-015
lhumerus -26.5662 -3.48972 89.2241
lradius 24.9325
lwrist -30.7043
lhand -28.3738 30.586
lfingers 7.12502
lthumb -1.74692 60.5586
rfemur -22.2859 -6.234 14.0731
rtibia 47.6906
rfoot -25.9079 1.68569
rtoes -7.19306
lfemur -22.0958 5.76796 -8.87555
ltibia 45.3973
lfoot -22.1623 0.212001
ltoes -8.45973
124
root -2.81701 16.4721 -36.1775 3.5355 0.437177 -2.65162
lowerback 7.41953 1.95356 -1.83934
upperback -3.8226 2.5186 1.26339
thorax -8.34507 1.37226 2.0007
lowerneck -2.63996 -3.8773 -6.5764
upperneck 5.98622 -5.24741 6.08063
head 2.79025 -2.59387 2.99315
rclavicle -6.19649e-016 1.80894e-014
rhumerus -32.6703 2.47015 -80.3949
rradius 30.5064
rwrist 2.71962
rhand -19.8343 -27.2657
rfingers 7.12502
rthumb 6.49974 -57.146
lclavicle -6.19649e-016 1.80894e-014
lhumerus -26.5654 -3.34746 89.166
lradius 24.9126
lwrist -30.7339
lhand -28.464 30.5092
lfingers 7.12502
lthumb -1.83404 60.4811
rfemur -22.3197 -6.23613 14.1056
rtibia 47.7244
rfoot -25.9137 1.72155
rtoes -7.21331
lfemur -22.1266 5.81086 -8.85448
ltibia 45.4422
lfoot -22.1619 0.369297
ltoes -8.96256
125
root -2.81718 16.4698 -36.1771 3.51668 0.37687 -2.64901
lowerback 7.42892 1.97396 -1.86174
upperback -3.81817 2.54325 1.26175
thorax -8.34814 1.38545 2.00763
lowerneck -2.60372 -3.86536 -6.57536
upperneck 5.96836 -5.23265 6.07849
head 2.7762 -2.58712 2.99325
rclavicle 4.51039e-014 1.13307e-014
rhumerus -32.6697 2.44475 -80.3958
rradius 30.4831
rwrist 2.75155
rhand -19.8452 -27.2571
rfingers 7.12502
rthumb 6.4893 -57.1376
lclavicle 4.51039e-014 1.13307e-014
lhumerus -26.5605 -3.21981 89.1042
lradius 24.8696
lwrist -30.7891
lhand -28.41 30.564
lfingers 7.12502
lthumb -1.78185 60.5363
rfemur -22.3364 -6.21427 14.0952
rtibia 47.7684
rfoot -25.9319 1.7902
rtoes -7.16354
lfemur -22.1058 5.82603 -8.85767
ltibia 45.4734
lfoot -22.182 0.428967
ltoes -8.987
126
root -2.81637 16.4679 -36.1776 3.5215 0.330397 -2.63225
lowerback 7.42694 1.9851 -1.88554
upperback -3.8182 2.55545 1.2594
thorax -8.34875 1.39265 2.01674
lowerneck -2.60667 -3.8506 -6.57502
upperneck 5.97245 -5.21101 6.0514
head 2.77542 -2.57703 2.98467
rclavicle -2.0905e-014 -1.58034e-014
rhumerus -32.6845 2.44464 -80.3917
rradius 30.4886
rwrist 2.79041
rhand -19.9164 -26.9921
rfingers 7.12502
rthumb 6.42051 -56.8748
lclavicle -2.0905e-014 -1.58034e-014
lhumerus -26.5635 -3.07496 89.0485
lradius 24.8474
lwrist -30.8346
lhand -28.5068 30.5516
lfingers 7.12502
lthumb -1.87537 60.5231
rfemur -22.3706 -6.21852 14.0711
rtibia 47.8049
rfoot -25.9588 1.82483
rtoes -7.18572
lfemur -22.1171 5.83706 -8.88135
ltibia 45.5059
lfoot -22.188 0.483638
ltoes -9.0563
127
root -2.81554 16.4661 -36.1777 3.51358 0.283674 -2.58652
lowerback 7.42898 1.99767 -1.92768
upperback -3.81333 2.56623 1.24126
thorax -8.34644 1.39958 2.01961
lowerneck -2.58376 -3.82523 -6.56421
upperneck 5.9655 -5.17762 6.03827
head 2.76537 -2.56087 2.97974
rclavicle -2.08553e-014 -1.48095e-014
rhumerus -32.6691 2.42182 -80.3945
rradius 30.4806
rwrist 2.80887
rhand -19.816 -27.2704
rfingers 7.12502
rthumb 6.51746 -57.1502
lclavicle -2.08553e-014 -1.48095e-014
lhumerus -26.5759 -2.95706 88.9887
lradius 24.8333
lwrist -30.8874
lhand -28.4656 30.5282
lfingers 7.12502
lthumb -1.83563 60.5001
rfemur -22.4007 -6.2201 14.0142
rtibia 47.8529
rfoot -25.9809 1.84849
rtoes -7.25051
lfemur -22.1073 5.81803 -8.93741
ltibia 45.5293
lfoot -22.1889 0.548379
ltoes -9.07664
128
root -2.81483 16.4642 -36.1778 3.51652 0.211158 -2.57237
lowerback 7.44531 2.02103 -1.93968
upperback -3.81775 2.59509 1.22893
thorax -8.36234 1.41406 2.00839
lowerneck -2.61071 -3.8249 -6.56103
upperneck 5.99861 -5.17638 6.02808
head 2.781 -2.56007 2.9754
rclavicle 2.73205e-014 1.37161e-014
rhumerus -32.6627 2.37379 -80.3855
rradius 30.4556
rwrist 2.8678
rhand -19.8504 -27.1534
rfingers 7.12502
rthumb 6.48427 -57.0342
lclavicle 2.73205e-014 1.37161e-014
lhumerus -26.6147 -2.87926 88.9359
lradius 24.8386
lwrist -30.9285
lhand -28.5106 30.5459
lfingers 7.12502
lthumb -1.87907 60.5174
rfemur -22.4461 -6.21308 13.9929
rtibia 47.895
rfoot -26.0086 1.90385
rtoes -7.3551
lfemur -22.1029 5.84588 -8.9578
ltibia 45.559
lfoot -22.1944 0.606766
ltoes -9.06524
